<?xml version="1.0" encoding="utf-8"?>
<!-- Generator: Adobe Illustrator 16.0.0, SVG Export Plug-In . SVG Version: 6.00 Build 0)  -->
<!DOCTYPE svg PUBLIC "-//W3C//DTD SVG 1.1//EN" "http://www.w3.org/Graphics/SVG/1.1/DTD/svg11.dtd">
<svg version="1.1" id="Capa_1" xmlns="http://www.w3.org/2000/svg" xmlns:xlink="http://www.w3.org/1999/xlink" x="0px" y="0px"
	 width="548.172px" height="548.172px" viewBox="0 0 548.172 548.172" enable-background="new 0 0 548.172 548.172"
	 xml:space="preserve">
<g>
	<g>
		<g>
			<path fill="#3D70B2" d="M518.268,10.201H388.475c-8.961,0-16.225,7.264-16.225,16.225s7.264,16.225,16.225,16.225h90.627
				L312.107,209.645c-6.336,6.336-6.336,16.607,0,22.943c3.166,3.168,7.32,4.752,11.471,4.752c4.152,0,8.305-1.584,11.473-4.752
				L502.045,65.594v90.625c0,8.96,7.264,16.225,16.225,16.225s16.225-7.264,16.225-16.225V26.425
				C534.492,17.465,527.229,10.201,518.268,10.201z"/>
		</g>
	</g>
	<rect x="13.678" y="13.974" fill="#3D70B2" width="297.662" height="86.648"/>
	<rect x="13.678" y="93.086" fill="#3D70B2" width="39.756" height="444.885"/>
	<rect x="53.434" y="498.214" fill="#3D70B2" width="481.06" height="39.757"/>
	<rect x="494.736" y="244.34" fill="#3D70B2" width="39.758" height="275.631"/>
</g>
<line fill="none" x1="263.586" y1="548.172" x2="263.586" y2="0"/>
<line fill="none" x1="0" y1="240.84" x2="548.172" y2="240.84"/>
</svg>
