<?xml version="1.0" encoding="utf-8"?>
<!-- Generator: Adobe Illustrator 16.0.0, SVG Export Plug-In . SVG Version: 6.00 Build 0)  -->
<!DOCTYPE svg PUBLIC "-//W3C//DTD SVG 1.1//EN" "http://www.w3.org/Graphics/SVG/1.1/DTD/svg11.dtd">
<svg version="1.1" id="Capa_1" xmlns="http://www.w3.org/2000/svg" xmlns:xlink="http://www.w3.org/1999/xlink" x="0px" y="0px"
	 width="548.172px" height="548.172px" viewBox="0 0 548.172 548.172" enable-background="new 0 0 548.172 548.172"
	 xml:space="preserve">
<path fill="#3D70B2" d="M486.313,415.647c0-2.681-0.941-5.367-2.817-8.05c-15.036-17.995-27.114-33.43-36.245-46.309
	c5.637-11.006,9.934-21.209,12.879-30.597l62.42-9.665c2.423-0.273,4.571-1.679,6.449-4.222c1.877-2.563,2.808-5.175,2.808-7.858
	v-74.505c0-2.949-0.931-5.569-2.808-7.848c-1.878-2.277-4.162-3.692-6.845-4.221l-61.215-9.263
	c-2.958-9.129-7.52-20.143-13.694-33.023c4.022-5.91,10.07-13.967,18.126-24.163c8.052-10.203,13.699-17.449,16.913-21.745
	c1.882-2.684,2.819-5.237,2.819-7.65c0-7.25-19.332-28.727-57.979-64.434c-2.684-2.145-5.504-3.217-8.467-3.217
	c-3.213,0-5.898,0.928-8.056,2.816l-47.521,35.84c-11.002-5.636-21.07-9.795-30.2-12.488l-9.262-61.609
	c-0.265-2.685-1.607-5.037-4.024-7.048c-2.417-2.013-5.102-3.021-8.058-3.021H236.64c-6.173,0-10.2,3.221-12.079,9.663
	c-3.224,12.351-6.309,33.027-9.262,62.015c-11.542,3.758-21.878,8.054-31.005,12.886l-46.309-36.24
	c-2.684-1.882-5.502-2.816-8.458-2.816c-5.107,0-15.71,7.918-31.815,23.76C81.603,98.474,70.59,110.42,64.689,118.476
	c-1.882,2.151-2.817,4.835-2.817,8.057c0,2.413,0.934,5.098,2.817,8.051c15.031,17.992,27.11,33.429,36.24,46.309
	c-5.636,11.013-9.93,21.209-12.881,30.604l-62.42,9.659c-2.419,0.268-4.564,1.676-6.446,4.222c-1.877,2.556-2.817,5.169-2.817,7.852
	v74.499c0,2.956,0.939,5.57,2.817,7.849c1.881,2.288,4.161,3.561,6.851,3.828l61.208,9.664c3.222,10.198,7.924,21.208,14.098,33.021
	c-4.296,5.911-10.603,14.103-18.925,24.567c-8.329,10.476-13.83,17.589-16.513,21.344c-1.879,2.686-2.819,5.244-2.819,7.646
	c0,7.26,19.332,28.729,57.99,64.441c2.685,2.141,5.499,3.208,8.458,3.208c3.489,0,6.173-0.931,8.05-2.813l47.518-35.835
	c11.003,5.638,21.071,9.794,30.202,12.479l9.263,61.615c0.265,2.683,1.611,5.037,4.024,7.047c2.416,2.013,5.101,3.017,8.055,3.017
	h74.896c6.179,0,10.202-3.219,12.082-9.664c3.222-12.621,6.306-33.425,9.262-62.421c10.736-3.208,21.07-7.384,31.006-12.478
	l46.312,36.24c2.683,1.883,5.501,2.813,8.455,2.813c5.103,0,15.643-7.981,31.615-23.965c15.967-15.962,27.048-27.985,33.224-36.036
	C485.371,421.42,486.313,418.873,486.313,415.647z M346.975,343.979c-20.13,20.129-44.429,30.196-72.882,30.196
	c-28.462,0-52.761-10.07-72.891-30.196c-20.133-20.138-30.201-44.437-30.201-72.893c0-28.455,10.068-52.753,30.201-72.886
	c20.13-20.135,44.43-30.2,72.891-30.2c28.454,0,52.752,10.063,72.882,30.2c20.137,20.132,30.203,44.431,30.203,72.886
	C377.178,299.543,367.113,323.842,346.975,343.979z"/>
</svg>
