<?xml version="1.0" encoding="UTF-8"?>
<svg width="24px" height="24px" viewBox="0 0 24 24" version="1.1" xmlns="http://www.w3.org/2000/svg" xmlns:xlink="http://www.w3.org/1999/xlink">
    <!-- Generator: sketchtool 50.2 (55047) - http://www.bohemiancoding.com/sketch -->
    <title>12822D03-D455-4F8F-B498-1360B103D95A</title>
    <desc>Created with sketchtool.</desc>
    <defs></defs>
    <g id="Page-1" stroke="none" stroke-width="1" fill="none" fill-rule="evenodd">
        <g id="Polymath-Dev-Portal" transform="translate(-1104.000000, -553.000000)" fill="#3D70B2">
            <g id="UI-Icon/Icon/favorite/$brand-01" transform="translate(1104.000000, 553.000000)">
                <path d="M12.1635255,18.384375 L5.41352549,23.184375 C5.11352549,23.334375 4.66352549,23.184375 4.81352549,22.734375 L7.06352549,15.084375 L0.163525492,10.284375 C-0.136474508,9.984375 0.0135254916,9.534375 0.313525492,9.534375 L8.56352549,8.784375 L11.5635255,0.984375 C11.7135255,0.684375 12.1635255,0.684375 12.3135255,0.984375 L15.3135255,8.784375 L23.5635255,9.534375 C23.8635255,9.534375 24.0135255,9.984375 23.7135255,10.134375 L16.9635255,15.084375 L19.2135255,22.734375 C19.3635255,23.034375 18.9135255,23.334375 18.6135255,23.184375 L12.1635255,18.384375 L12.1635255,18.384375 Z" id="favorite"></path>
            </g>
        </g>
    </g>
</svg>