<svg xmlns="http://www.w3.org/2000/svg" viewBox="0 0 535.86 80.88"><defs><style>.cls-1{fill:#2a3f7d;}.cls-2{fill:#366fa0;}</style></defs><title>text</title><g id="Layer_2" data-name="Layer 2"><g id="Layer_1-2" data-name="Layer 1"><path class="cls-1" d="M11.68,25.51H20.2c5.39,0,8.53-3.21,8.53-7.4V18c0-4.82-3.35-7.41-8.74-7.41H11.68L.91,10.6V.84h20c11.68,0,18.74,6.92,18.74,16.92v.13c0,11.33-8.81,17.2-19.78,17.2H11.68V49.77H.91V25.55Z"/><path class="cls-1" d="M62.91,25.44V25.3C62.91,11.4,73.89,0,89,0s25.93,11.25,25.93,25.17v.13c0,13.92-11,25.31-26.07,25.31S62.91,39.35,62.91,25.44Zm40.76,0V25.3c0-8.38-6.16-15.37-14.82-15.37S74.17,16.78,74.17,25.17v.13c0,8.39,6.15,15.38,14.82,15.38S103.67,33.83,103.67,25.44Z"/><path class="cls-1" d="M145.49.84h10.76V40h24.4v9.79H145.49Z"/><path class="cls-1" d="M220,30.48,201.2.84h12.58l11.67,19.64L237.34.84h12.23l-18.8,29.43v19.5H220Z"/><path class="cls-1" d="M277.27.84h11.6l12.87,20.69L314.6.84h11.6V49.77H315.51V17.82L301.74,38.73h-.28L287.83,18V49.77H277.27Z"/><path class="cls-1" d="M386.65,29.29l-6.5-15.87-6.51,15.87-3.84,9.5-4.47,11h-11l21-49.28h9.93l21,49.28H395l-4.48-11Z"/><path class="cls-1" d="M439.91,10.77H425V.84h40.55v9.93H450.68v39H439.91Z"/><path class="cls-1" d="M494,.84h10.76V20.2h19.86V.84H535.4V49.77H524.64V30.13H504.78V49.77H494Z"/><path class="cls-2" d="M7,68.55V80.78H4.56V68.55H0V66.36H11.55v2.19Z"/><path class="cls-2" d="M29.88,80.78v-6H22.24v6H19.8V66.36h2.44v6.27h7.64V66.36h2.43V80.78Z"/><path class="cls-2" d="M44.7,68.55v3.9h7v2.18h-7v4h8.11v2.18H42.26V66.36h10.3v2.19Z"/><path class="cls-2" d="M80.87,66.67a8.89,8.89,0,0,1,2.35,1.08l-1,2.14a9.57,9.57,0,0,0-2.23-1,6.71,6.71,0,0,0-2-.33,3.22,3.22,0,0,0-1.72.39,1.23,1.23,0,0,0-.63,1.11,1.5,1.5,0,0,0,.41,1.07,2.83,2.83,0,0,0,1,.69,15.94,15.94,0,0,0,1.73.59,18.89,18.89,0,0,1,2.38.85,4.14,4.14,0,0,1,1.57,1.26,3.44,3.44,0,0,1,.65,2.17,3.68,3.68,0,0,1-.7,2.21,4.4,4.4,0,0,1-1.92,1.46,7.31,7.31,0,0,1-2.82.51,8.58,8.58,0,0,1-3.2-.61,9,9,0,0,1-2.7-1.67l1.06-2.1A8.15,8.15,0,0,0,75.53,78a6.31,6.31,0,0,0,2.48.55,3.58,3.58,0,0,0,2-.46,1.45,1.45,0,0,0,.71-1.29,1.49,1.49,0,0,0-.42-1.09,2.85,2.85,0,0,0-1-.68c-.42-.17-1-.36-1.74-.58a17.59,17.59,0,0,1-2.37-.85,4.12,4.12,0,0,1-1.55-1.21,3.24,3.24,0,0,1-.65-2.14,3.52,3.52,0,0,1,.66-2.12,4.1,4.1,0,0,1,1.84-1.4,7.1,7.1,0,0,1,2.75-.5A9.16,9.16,0,0,1,80.87,66.67Z"/><path class="cls-2" d="M94.85,68.55v3.9h7v2.18h-7v4H103v2.18H92.41V66.36h10.3v2.19Z"/><path class="cls-2" d="M121.46,66.89a7.52,7.52,0,0,1,2.5,1.63l-1.42,1.78A6.06,6.06,0,0,0,120.69,69a5.15,5.15,0,0,0-2.17-.49,5.24,5.24,0,0,0-2.6.66,5.09,5.09,0,0,0,2.6,9.49,5.43,5.43,0,0,0,2.13-.45,6,6,0,0,0,1.89-1.26L124,78.52a8.27,8.27,0,0,1-2.6,1.73,7.53,7.53,0,0,1-3,.63,7.64,7.64,0,0,1-3.8-1,7.11,7.11,0,0,1-2.71-2.65,7.28,7.28,0,0,1-1-3.72,7,7,0,0,1,1-3.67,7.19,7.19,0,0,1,2.74-2.62,7.82,7.82,0,0,1,3.84-1A7.91,7.91,0,0,1,121.46,66.89Z"/><path class="cls-2" d="M144.13,78.05a5.06,5.06,0,0,1-2.17,2.1,8,8,0,0,1-6.69,0,5.06,5.06,0,0,1-2.17-2.1,6.52,6.52,0,0,1-.76-3.24V66.36h2.42v8.45a3.59,3.59,0,0,0,3.88,3.89,3.74,3.74,0,0,0,2.79-1,3.89,3.89,0,0,0,1-2.86V66.36h2.43v8.45A6.63,6.63,0,0,1,144.13,78.05Z"/><path class="cls-2" d="M161,76.42l-.66,0H157v4.34h-2.43V66.36h5.85a6.42,6.42,0,0,1,4.28,1.29,4.49,4.49,0,0,1,1.53,3.64,5.29,5.29,0,0,1-.77,2.92A4.57,4.57,0,0,1,163.21,76l3.22,4.81h-2.75Zm1.94-2.9a2.63,2.63,0,0,0,.9-2.17,2.5,2.5,0,0,0-.9-2.1,4.17,4.17,0,0,0-2.6-.7H157v5.71h3.42A4,4,0,0,0,163,73.52Z"/><path class="cls-2" d="M175.59,80.78V66.36H178V80.78Z"/><path class="cls-2" d="M193.26,68.55V80.78h-2.43V68.55h-4.56V66.36h11.56v2.19Z"/><path class="cls-2" d="M206.08,80.78V66.36h2.43V80.78Z"/><path class="cls-2" d="M220.9,68.55v3.9h7v2.18h-7v4H229v2.18H218.47V66.36h10.29v2.19Z"/><path class="cls-2" d="M245.59,66.67a8.68,8.68,0,0,1,2.34,1.08l-1,2.14a9.76,9.76,0,0,0-2.23-1,6.71,6.71,0,0,0-2-.33,3.22,3.22,0,0,0-1.72.39,1.23,1.23,0,0,0-.63,1.11,1.5,1.5,0,0,0,.41,1.07,2.87,2.87,0,0,0,1,.69,17.07,17.07,0,0,0,1.74.59,19.49,19.49,0,0,1,2.38.85,4.14,4.14,0,0,1,1.57,1.26,3.44,3.44,0,0,1,.65,2.17,3.62,3.62,0,0,1-.7,2.21,4.4,4.4,0,0,1-1.92,1.46,7.38,7.38,0,0,1-2.82.51,8.58,8.58,0,0,1-3.2-.61,9,9,0,0,1-2.7-1.67l1.06-2.1a8.15,8.15,0,0,0,2.4,1.55,6.31,6.31,0,0,0,2.48.55,3.58,3.58,0,0,0,2-.46,1.47,1.47,0,0,0,.71-1.29,1.49,1.49,0,0,0-.42-1.09,2.85,2.85,0,0,0-1.05-.68c-.42-.17-1-.36-1.74-.58a18.33,18.33,0,0,1-2.38-.85,4.09,4.09,0,0,1-1.54-1.21,3.24,3.24,0,0,1-.65-2.14,3.52,3.52,0,0,1,.66-2.12,4.1,4.1,0,0,1,1.84-1.4,7.1,7.1,0,0,1,2.75-.5A9.16,9.16,0,0,1,245.59,66.67Z"/><path class="cls-2" d="M273.9,68.55V80.78h-2.44V68.55h-4.55V66.36h11.55v2.19Z"/><path class="cls-2" d="M296.17,67.26a7.2,7.2,0,0,1,2.76,2.63,7.33,7.33,0,0,1,0,7.39,7.15,7.15,0,0,1-2.76,2.64,8.3,8.3,0,0,1-7.75,0,7.06,7.06,0,0,1-2.75-2.64,7,7,0,0,1-1-3.71,6.87,6.87,0,0,1,1-3.69,7.08,7.08,0,0,1,2.75-2.62,8.3,8.3,0,0,1,7.75,0Zm-6.45,1.91A5.13,5.13,0,0,0,287.83,71a5,5,0,0,0,0,5.14A5.26,5.26,0,0,0,289.73,78a5.12,5.12,0,0,0,7.71-4.44,4.94,4.94,0,0,0-.69-2.56,5.13,5.13,0,0,0-1.86-1.84,5,5,0,0,0-2.58-.68A5.06,5.06,0,0,0,289.72,69.17Z"/><path class="cls-2" d="M313.59,74.42l-2.46,2.69v3.67H308.7V66.36h2.43v7.47L318,66.36h2.86l-5.57,6.17,5.95,8.25h-2.93Z"/><path class="cls-2" d="M332.09,68.55v3.9h7v2.18h-7v4h8.12v2.18H329.66V66.36H340v2.19Z"/><path class="cls-2" d="M359.46,80.78l-7.68-10.33V80.78h-2.44V66.36h2.4l7.72,10.37V66.36h2.39V80.78Z"/><path class="cls-2" d="M393.28,67.65a4.56,4.56,0,0,1,1.49,3.64,4.87,4.87,0,0,1-1.49,3.8,6.07,6.07,0,0,1-4.21,1.35h-3.32v4.34h-2.43V66.36h5.75A6.25,6.25,0,0,1,393.28,67.65Zm-7.53,6.61H389a4,4,0,0,0,2.58-.74,2.63,2.63,0,0,0,.9-2.17,2.5,2.5,0,0,0-.9-2.1,4.11,4.11,0,0,0-2.58-.7h-3.22Z"/><path class="cls-2" d="M412,78.58v2.2h-8.68V66.36h2.43V78.58Z"/><path class="cls-2" d="M422.68,77.52l-1.38,3.26h-2.53l6.36-14.42h2.5l6.29,14.42h-2.59L430,77.52ZM426.31,69l-2.72,6.4H429Z"/><path class="cls-2" d="M445.88,68.55V80.78h-2.44V68.55h-4.55V66.36h11.55v2.19Z"/><path class="cls-2" d="M461.12,68.55v4.16h6.55v2.16h-6.55v5.91h-2.43V66.36h9.68v2.19Z"/><path class="cls-2" d="M487,67.26a7.2,7.2,0,0,1,2.76,2.63,7.33,7.33,0,0,1,0,7.39A7.15,7.15,0,0,1,487,79.92a8.3,8.3,0,0,1-7.75,0,7.06,7.06,0,0,1-2.75-2.64,7,7,0,0,1-1-3.71,6.87,6.87,0,0,1,1-3.69,7.08,7.08,0,0,1,2.75-2.62,8.3,8.3,0,0,1,7.75,0Zm-6.45,1.91A5.21,5.21,0,0,0,478.69,71a5,5,0,0,0,0,5.14A5.26,5.26,0,0,0,480.59,78a5.12,5.12,0,0,0,7.71-4.44,4.94,4.94,0,0,0-.69-2.56,5.13,5.13,0,0,0-1.86-1.84,5,5,0,0,0-2.58-.68A5.09,5.09,0,0,0,480.58,69.17Z"/><path class="cls-2" d="M506.07,76.42l-.66,0H502v4.34h-2.43V66.36h5.85a6.45,6.45,0,0,1,4.28,1.29,4.49,4.49,0,0,1,1.53,3.64,5.29,5.29,0,0,1-.77,2.92A4.55,4.55,0,0,1,508.23,76l3.23,4.81h-2.75Zm1.93-2.9a2.61,2.61,0,0,0,.91-2.17,2.48,2.48,0,0,0-.91-2.1,4.14,4.14,0,0,0-2.59-.7H502v5.71h3.42A4,4,0,0,0,508,73.52Z"/><path class="cls-2" d="M533.62,80.78l0-10.77L529,79.28h-1.59L522.91,70V80.78h-2.29V66.36h2.88L528.26,76,533,66.36h2.87V80.78Z"/></g></g></svg>